REM DIRINDEX 1\2,1\3
REM DIRNAME folder01,folder02,folder03
TITLE ""
FILE "CD1Track29.mp3" MP3
  TRACK 01 AUDIO
    TITLE "0:"
    INDEX 01 00:00:00
  TRACK 02 AUDIO
    TITLE "3:cjc102_1280"
    INDEX 01 00:00:25
  TRACK 03 AUDIO
    TITLE "0:"
    INDEX 01 00:01:22
  TRACK 04 AUDIO
    TITLE "2:cjc102_1281"
    INDEX 01 00:01:32
  TRACK 05 AUDIO
    TITLE "0:"
    INDEX 01 00:02:57
  TRACK 06 AUDIO
    TITLE "3:cjc102_1282"
    INDEX 01 00:03:14
  TRACK 07 AUDIO
    TITLE "0:"
    INDEX 01 00:03:74
  TRACK 08 AUDIO
    TITLE "2:cjc102_1283"
    INDEX 01 00:04:27
  TRACK 09 AUDIO
    TITLE "0:"
    INDEX 01 00:05:26
  TRACK 10 AUDIO
    TITLE "3:cjc102_1284"
    INDEX 01 00:06:24
  TRACK 11 AUDIO
    TITLE "0:"
    INDEX 01 00:07:15
  TRACK 12 AUDIO
    TITLE "2:cjc102_1285"
    INDEX 01 00:07:17
  TRACK 13 AUDIO
    TITLE "0:"
    INDEX 01 00:08:30
  TRACK 14 AUDIO
    TITLE "3:cjc102_1286"
    INDEX 01 00:09:20
  TRACK 15 AUDIO
    TITLE "0:"
    INDEX 01 00:10:12
  TRACK 16 AUDIO
    TITLE "2:cjc102_1287"
    INDEX 01 00:10:16
  TRACK 17 AUDIO
    TITLE "0:"
    INDEX 01 00:11:17
  TRACK 18 AUDIO
    TITLE "3:cjc102_1288"
    INDEX 01 00:11:72
  TRACK 19 AUDIO
    TITLE "0:"
    INDEX 01 00:12:54
  TRACK 20 AUDIO
    TITLE "2:cjc102_1289"
    INDEX 01 00:13:12
  TRACK 21 AUDIO
    TITLE "0:"
    INDEX 01 00:14:37
  TRACK 22 AUDIO
    TITLE "3:cjc102_1290"
    INDEX 01 00:15:36
  TRACK 23 AUDIO
    TITLE "0:"
    INDEX 01 00:16:36
  TRACK 24 AUDIO
    TITLE "2:cjc102_1291"
    INDEX 01 00:16:61
  TRACK 25 AUDIO
    TITLE "0:"
    INDEX 01 00:17:55
  TRACK 26 AUDIO
    TITLE "3:cjc102_1292"
    INDEX 01 00:19:26
  TRACK 27 AUDIO
    TITLE "0:"
    INDEX 01 00:20:22
  TRACK 28 AUDIO
    TITLE "2:cjc102_1293"
    INDEX 01 00:20:45
  TRACK 29 AUDIO
    TITLE "0:"
    INDEX 01 00:21:45
  TRACK 30 AUDIO
    TITLE "3:cjc102_1294"
    INDEX 01 00:22:58
  TRACK 31 AUDIO
    TITLE "0:"
    INDEX 01 00:23:53
  TRACK 32 AUDIO
    TITLE "2:cjc102_1295"
    INDEX 01 00:24:06
  TRACK 33 AUDIO
    TITLE "0:"
    INDEX 01 00:25:03
  TRACK 34 AUDIO
    TITLE "3:cjc102_1296"
    INDEX 01 00:26:50
  TRACK 35 AUDIO
    TITLE "0:"
    INDEX 01 00:27:43
  TRACK 36 AUDIO
    TITLE "2:cjc102_1297"
    INDEX 01 00:27:55
  TRACK 37 AUDIO
    TITLE "0:"
    INDEX 01 00:28:55
  TRACK 38 AUDIO
    TITLE "3:cjc102_1298"
    INDEX 01 00:30:14
  TRACK 39 AUDIO
    TITLE "0:"
    INDEX 01 00:31:10
  TRACK 40 AUDIO
    TITLE "2:cjc102_1299"
    INDEX 01 00:31:37
  TRACK 41 AUDIO
    TITLE "0:"
    INDEX 01 00:32:43
  TRACK 42 AUDIO
    TITLE "3:cjc102_1300"
    INDEX 01 00:34:02
  TRACK 43 AUDIO
    TITLE "0:"
    INDEX 01 00:35:21
  TRACK 44 AUDIO
    TITLE "2:cjc102_1301"
    INDEX 01 00:35:41
  TRACK 45 AUDIO
    TITLE "0:"
    INDEX 01 00:36:48
  TRACK 46 AUDIO
    TITLE "3:cjc102_1302"
    INDEX 01 00:37:71
  TRACK 47 AUDIO
    TITLE "0:"
    INDEX 01 00:39:09
  TRACK 48 AUDIO
    TITLE "2:cjc102_1303"
    INDEX 01 00:39:47
  TRACK 49 AUDIO
    TITLE "0:"
    INDEX 01 00:40:58
  TRACK 50 AUDIO
    TITLE "3:cjc102_1304"
    INDEX 01 00:42:16
  TRACK 51 AUDIO
    TITLE "0:"
    INDEX 01 00:43:35
  TRACK 52 AUDIO
    TITLE "2:cjc102_1305"
    INDEX 01 00:44:03
  TRACK 53 AUDIO
    TITLE "0:"
    INDEX 01 00:45:22
  TRACK 54 AUDIO
    TITLE "3:cjc102_1306"
    INDEX 01 00:46:17
  TRACK 55 AUDIO
    TITLE "0:"
    INDEX 01 00:47:36
  TRACK 56 AUDIO
    TITLE "2:cjc102_1307"
    INDEX 01 00:48:14
  TRACK 57 AUDIO
    TITLE "0:"
    INDEX 01 00:49:18
  TRACK 58 AUDIO
    TITLE "3:cjc102_1308"
    INDEX 01 00:50:29
  TRACK 59 AUDIO
    TITLE "0:"
    INDEX 01 00:51:38
  TRACK 60 AUDIO
    TITLE "2:cjc102_1309"
    INDEX 01 00:52:04
  TRACK 61 AUDIO
    TITLE "0:"
    INDEX 01 00:53:23
  TRACK 62 AUDIO
    TITLE "3:cjc102_1310"
    INDEX 01 00:53:72
  TRACK 63 AUDIO
    TITLE "0:"
    INDEX 01 00:55:08
  TRACK 64 AUDIO
    TITLE "2:cjc102_1311"
    INDEX 01 00:55:40
  TRACK 65 AUDIO
    TITLE "0:"
    INDEX 01 00:56:29
  TRACK 66 AUDIO
    TITLE "3:cjc102_1312"
    INDEX 01 00:57:41
  TRACK 67 AUDIO
    TITLE "0:"
    INDEX 01 00:58:62
  TRACK 68 AUDIO
    TITLE "2:cjc102_1313"
    INDEX 01 00:59:24
  TRACK 69 AUDIO
    TITLE "0:"
    INDEX 01 01:00:21
  TRACK 70 AUDIO
    TITLE "3:cjc102_1314"
    INDEX 01 01:01:38
  TRACK 71 AUDIO
    TITLE "0:"
    INDEX 01 01:02:63
  TRACK 72 AUDIO
    TITLE "2:cjc102_1315"
    INDEX 01 01:03:08
  TRACK 73 AUDIO
    TITLE "0:"
    INDEX 01 01:04:03
  TRACK 74 AUDIO
    TITLE "3:cjc102_1316"
    INDEX 01 01:05:34
  TRACK 75 AUDIO
    TITLE "0:"
    INDEX 01 01:06:59
  TRACK 76 AUDIO
    TITLE "2:cjc102_1317"
    INDEX 01 01:06:73
  TRACK 77 AUDIO
    TITLE "0:"
    INDEX 01 01:07:68
  TRACK 78 AUDIO
    TITLE "3:cjc102_1318"
    INDEX 01 01:09:40
  TRACK 79 AUDIO
    TITLE "0:"
    INDEX 01 01:10:51
  TRACK 80 AUDIO
    TITLE "2:cjc102_1319"
    INDEX 01 01:11:25
  TRACK 81 AUDIO
    TITLE "0:"
    INDEX 01 01:12:23
  TRACK 82 AUDIO
    TITLE "3:cjc102_1320"
    INDEX 01 01:14:12
  TRACK 83 AUDIO
    TITLE "0:"
    INDEX 01 01:15:40
  TRACK 84 AUDIO
    TITLE "2:cjc102_1321"
    INDEX 01 01:16:03
  TRACK 85 AUDIO
    TITLE "0:"
    INDEX 01 01:16:73
  TRACK 86 AUDIO
    TITLE "3:cjc102_1322"
    INDEX 01 01:17:65
  TRACK 87 AUDIO
    TITLE "0:"
    INDEX 01 01:19:11
  TRACK 88 AUDIO
    TITLE "2:cjc102_1323"
    INDEX 01 01:19:70
  TRACK 89 AUDIO
    TITLE "0:"
    INDEX 01 01:20:69
  TRACK 90 AUDIO
    TITLE "3:cjc102_1324"
    INDEX 01 01:22:23
  TRACK 91 AUDIO
    TITLE "0:"
    INDEX 01 01:23:50
  TRACK 92 AUDIO
    TITLE "2:cjc102_1325"
    INDEX 01 01:24:30
  TRACK 93 AUDIO
    TITLE "0:"
    INDEX 01 01:25:25
  TRACK 94 AUDIO
    TITLE "3:cjc102_1326"
    INDEX 01 01:27:36
  TRACK 95 AUDIO
    TITLE "0:"
    INDEX 01 01:28:67
  TRACK 96 AUDIO
    TITLE "2:cjc102_1327"
    INDEX 01 01:29:05
  TRACK 97 AUDIO
    TITLE "0:"
    INDEX 01 01:30:18
  TRACK 98 AUDIO
    TITLE "2:cjc102_1328"
    INDEX 01 01:30:69
  TRACK 99 AUDIO
    TITLE "0:"
    INDEX 01 01:32:13
  TRACK 100 AUDIO
    TITLE "3:cjc102_1329"
    INDEX 01 01:32:59
  TRACK 101 AUDIO
    TITLE "0:"
    INDEX 01 01:34:05
  TRACK 102 AUDIO
    TITLE "2:cjc102_1330"
    INDEX 01 01:34:18
  TRACK 103 AUDIO
    TITLE "0:"
    INDEX 01 01:35:29
  TRACK 104 AUDIO
    TITLE "2:cjc102_1331"
    INDEX 01 01:36:11
  TRACK 105 AUDIO
    TITLE "0:"
    INDEX 01 01:37:24
  TRACK 106 AUDIO
    TITLE "3:cjc102_1332"
    INDEX 01 01:38:49
  TRACK 107 AUDIO
    TITLE "0:"
    INDEX 01 01:40:09
  TRACK 108 AUDIO
    TITLE "2:cjc102_1333"
    INDEX 01 01:40:44
  TRACK 109 AUDIO
    TITLE "0:"
    INDEX 01 01:41:56
  TRACK 110 AUDIO
    TITLE "2:cjc102_1334"
    INDEX 01 01:42:20
  TRACK 111 AUDIO
    TITLE "0:"
    INDEX 01 01:43:21
  TRACK 112 AUDIO
    TITLE "3:cjc102_1335"
    INDEX 01 01:44:44
  TRACK 113 AUDIO
    TITLE "0:"
    INDEX 01 01:46:02
  TRACK 114 AUDIO
    TITLE "2:cjc102_1336"
    INDEX 01 01:46:29
  TRACK 115 AUDIO
    TITLE "0:"
    INDEX 01 01:47:42
  TRACK 116 AUDIO
    TITLE "2:cjc102_1337"
    INDEX 01 01:48:01
  TRACK 117 AUDIO
    TITLE "0:"
    INDEX 01 01:49:10
  TRACK 118 AUDIO
    TITLE "3:cjc102_1338"
    INDEX 01 01:49:39
  TRACK 119 AUDIO
    TITLE "0:"
    INDEX 01 01:50:60
  TRACK 120 AUDIO
    TITLE "2:cjc102_1339"
    INDEX 01 01:50:66
  TRACK 121 AUDIO
    TITLE "0:"
    INDEX 01 01:51:72
  TRACK 122 AUDIO
    TITLE "2:cjc102_1340"
    INDEX 01 01:52:30
  TRACK 123 AUDIO
    TITLE "0:"
    INDEX 01 01:53:45
  TRACK 124 AUDIO
    TITLE "3:cjc102_1341"
    INDEX 01 01:53:47
  TRACK 125 AUDIO
    TITLE "0:"
    INDEX 01 01:55:03
  TRACK 126 AUDIO
    TITLE "2:cjc102_1342"
    INDEX 01 01:55:09
  TRACK 127 AUDIO
    TITLE "0:"
    INDEX 01 01:56:30
  TRACK 128 AUDIO
    TITLE "2:cjc102_1343"
    INDEX 01 01:56:59
  TRACK 129 AUDIO
    TITLE "0:"
    INDEX 01 01:57:66
  TRACK 130 AUDIO
    TITLE "3:cjc102_1344"
    INDEX 01 01:58:05
  TRACK 131 AUDIO
    TITLE "0:"
    INDEX 01 01:59:24
  TRACK 132 AUDIO
    TITLE "2:cjc102_1345"
    INDEX 01 01:59:38
  TRACK 133 AUDIO
    TITLE "0:"
    INDEX 01 02:00:53
  TRACK 134 AUDIO
    TITLE "2:cjc102_1346"
    INDEX 01 02:01:05
  TRACK 135 AUDIO
    TITLE "0:"
    INDEX 01 02:02:18
  TRACK 136 AUDIO
    TITLE "3:cjc102_1347"
    INDEX 01 02:02:50
  TRACK 137 AUDIO
    TITLE "0:"
    INDEX 01 02:04:10
  TRACK 138 AUDIO
    TITLE "2:cjc102_1348"
    INDEX 01 02:04:12
  TRACK 139 AUDIO
    TITLE "0:"
    INDEX 01 02:05:19
  TRACK 140 AUDIO
    TITLE "2:cjc102_1349"
    INDEX 01 02:05:54
  TRACK 141 AUDIO
    TITLE "0:"
    INDEX 01 02:06:69
  TRACK 142 AUDIO
    TITLE "3:cjc102_1350"
    INDEX 01 02:07:22
  TRACK 143 AUDIO
    TITLE "0:"
    INDEX 01 02:08:48
  TRACK 144 AUDIO
    TITLE "2:cjc102_1351"
    INDEX 01 02:08:52
  TRACK 145 AUDIO
    TITLE "0:"
    INDEX 01 02:09:62
  TRACK 146 AUDIO
    TITLE "2:cjc102_1352"
    INDEX 01 02:10:16
  TRACK 147 AUDIO
    TITLE "0:"
    INDEX 01 02:11:31
